<?xml version="1.0" encoding="utf-8"?>
<!-- Generator: Adobe Illustrator 24.0.0, SVG Export Plug-In . SVG Version: 6.00 Build 0)  -->
<svg version="1.1" id="Capa_1" xmlns="http://www.w3.org/2000/svg" xmlns:xlink="http://www.w3.org/1999/xlink" x="0px" y="0px"
	 viewBox="0 0 511 511" style="enable-background:new 0 0 511 511;" xml:space="preserve">
<style type="text/css">
	.st0{fill:url(#SVGID_1_);}
	.st1{fill:#D28C0A;}
	.st2{fill:url(#SVGID_2_);}
	.st3{fill:url(#SVGID_3_);}
	.st4{fill:url(#SVGID_4_);}
</style>
<linearGradient id="SVGID_1_" gradientUnits="userSpaceOnUse" x1="1229.1376" y1="-631.0735" x2="1229.1376" y2="-631.0735">
	<stop  offset="0" style="stop-color:#F5A117"/>
	<stop  offset="1" style="stop-color:#FECB01"/>
</linearGradient>
<path class="st0" d="M1229.1-631.1"/>
<g>
	<path class="st1" d="M255.3,254.8l113.4-64.2v132.5c-37.8,21.7-75.5,43.4-113.3,65.1C255.3,343.7,255.3,299.2,255.3,254.8z"/>
	<linearGradient id="SVGID_2_" gradientUnits="userSpaceOnUse" x1="142.1305" y1="289.3907" x2="255.4999" y2="289.3907">
		<stop  offset="0" style="stop-color:#F5A117"/>
		<stop  offset="1" style="stop-color:#FECB01"/>
	</linearGradient>
	<polygon class="st2" points="255.5,254.8 142.1,190.6 142.1,323.1 255.4,388.2 	"/>
	<linearGradient id="SVGID_3_" gradientUnits="userSpaceOnUse" x1="142.1305" y1="189.5854" x2="368.6433" y2="189.5854">
		<stop  offset="0" style="stop-color:#F5A117"/>
		<stop  offset="1" style="stop-color:#FECB01"/>
	</linearGradient>
	<polygon class="st3" points="142.1,190.6 142.6,190.3 255.3,124.4 368.6,190.6 255.5,254.8 	"/>
</g>
<g>
	<polyline class="st1" points="422.2,354.7 422.2,159.5 395.8,174.5 395.8,338.9 	"/>
	<linearGradient id="SVGID_4_" gradientUnits="userSpaceOnUse" x1="88.5483" y1="256.3043" x2="422.2256" y2="256.3043">
		<stop  offset="0" style="stop-color:#F5A117"/>
		<stop  offset="1" style="stop-color:#FECB01"/>
	</linearGradient>
	<polygon class="st4" points="255.2,419.7 114.7,338.9 114.7,174.5 115.3,174.1 255.1,92.3 395.8,174.5 422.2,159.5 255.2,62 
		89.3,159.1 88.5,159.5 88.5,354.7 255.4,450.6 255.4,419.6 	"/>
</g>
<path class="st1" d="M312.1,335.9c17.2-9.6,34.3-19.3,51.5-28.9c3.6-2,5-1.5,5,2.1c0,2,0,3.5,0,3.5c-0.6,4.9-0.5,7.4-0.4,8.1v0
	c0.1,0.4,0.1,1-0.2,1.4c-0.1,0.2-0.2,0.2-0.4,0.4c-0.6,0.5-0.8,0.9-1,1.2c-0.5,0.7-1.4,1.4-2.6,2.5c-2,1.8-3.1,2.7-3.7,3.9
	c-0.9,1.4-1.3,2.6-1.5,4c-0.6,5-0.7,9.4-0.7,10.3c0,4-0.2,4.5-0.3,5.8c-0.3,2.1-1.5,4.1-3.4,5.9c-3.2,3.1-6.6,2.9-6.2-0.8
	c0-0.4,0-0.7,0-1.1c0-2-0.6-2.5-2.3-1.7c-1.9,0.9-3.4,2.9-3.5,4.7c-0.1,3.3-0.1,6.5,0,9.6c0.1,3,0.5,5.8,0.6,8.8
	c0.2,5.6,0.5,11.3,0.5,17c0,2.5-0.3,5.3-0.9,8.1c-0.7,3.1-2.8,5.4-5.6,6.2c-1.9,0.6-2.6-0.7-3.1-2c-0.3-1.1-0.5-2.4-0.5-3.7
	c0-10.6,0.2-21.3,0.2-31.8c0-1.8-0.5-3.3-0.9-4.8c-0.3-1.1-1.2-1-2.6,0c-1.3,0.9-2.7,2.1-3.9,2.6c-2.7,1.1-3.8-0.3-4.4-2.3
	c-0.6-2-1.1-4.2-2.1-5.9c-1.6-2.6-4.9-2.3-8.8,0.6c-1.6,1.2-2.7,3-3.7,4.8c-1.8,3.3-2.7,6.4-3.4,9.5c-0.5,2.2-0.9,4.3-1.3,6.5
	c-0.5,2.6-1.9,4.8-4,6.1c-2.1,1.4-4.7,2.2-5.7,0.5c-0.3-0.6-0.8-1.1-1.3-1.6c-0.9-0.8-2.3-0.6-3.7,0.5c-1.9,1.5-3.1,3.3-3.1,5
	c-0.1,2.4-0.1,4.8,0.1,7.1c0.2,2.6,0,5.3-0.9,8.4c-0.9,3.2-3.7,6.3-7,7.8c-4,1.8-6.3,0.9-6.6-2.8c-0.1-1.4,0-2.9,0-4.3
	c0-4,0.1-8,0-12c-0.1-2.9-0.3-5.7-0.5-8.5c-0.1-1.2-0.5-2.1-1.1-2.7c0,0-0.4-0.4-1-0.6c-2.7-0.9-9,4-10.3,3c-0.6-0.5,0.6-1.9,1-4.8
	c0.7-4.9-1.6-6.9-0.1-9.1c1.3-1.8,3.5-1.5,3.9-3.1c0.5-1.7-1.5-3-1.8-4.1C258.8,360,287.1,349.9,312.1,335.9z"/>
</svg>
